<svg viewBox="0 0 21 26" fill="none" xmlns="http://www.w3.org/2000/svg"><path d="M6.83 22.145c-1.197-1.073-1.546-3.33-1.048-4.964.865 1.03 2.063 1.357 3.303 1.541 1.916.285 3.797.178 5.576-.681.204-.098.392-.23.614-.362.167.476.21.956.152 1.444-.141 1.19-.745 2.109-1.704 2.806-.384.278-.79.527-1.186.79-1.217.808-1.546 1.755-1.089 3.132l.045.149a3.185 3.185 0 01-1.421-1.193 3.31 3.31 0 01-.549-1.822c-.004-.322-.004-.646-.048-.963-.108-.772-.477-1.118-1.173-1.137-.714-.021-1.279.412-1.429 1.095-.011.052-.028.104-.044.165h.001z" fill="url(#astro-gradient)"/><path d="M0 16.909s3.544-1.694 7.097-1.694l2.68-8.139c.1-.394.392-.661.723-.661.33 0 .623.267.724.661l2.679 8.139c4.208 0 7.097 1.694 7.097 1.694S14.981.815 14.97.782C14.795.306 14.504 0 14.111 0H6.889c-.393 0-.673.306-.858.782L0 16.91z" fill="currentColor"/><defs><linearGradient id="astro-gradient" x1="5.563" y1="26" x2="17.038" y2="20.476" gradientUnits="userSpaceOnUse"><stop stop-color="#D83333"/><stop offset="1" stop-color="#F041FF"/></linearGradient></defs></svg>