<svg viewBox="0 0 26 26" fill="none" xmlns="http://www.w3.org/2000/svg"><path d="M0 0h21.84A4.16 4.16 0 0126 4.16v17.68A4.16 4.16 0 0121.84 26H4.16A4.16 4.16 0 010 21.84V0z" fill="#639"/><path d="M9.31 23.92c-1.67-.002-2.7-.942-2.68-2.673V16.87c0-.877.257-1.544.77-2 .923-.89 3.064-.944 3.968.013.557.491.767 1.494.717 2.43h-1.917c.015-.367-.005-.925-.22-1.134-.282-.38-1.024-.336-1.22.06-.121.215-.181.533-.181.954v3.8c0 .797.276 1.2.83 1.209.26 0 .456-.094.59-.282.187-.223.216-.717.201-1.075h1.917c.13 1.822-.945 3.099-2.775 3.076zm6.086 0c-1.85.025-2.679-1.291-2.627-3.076h1.809c-.05.778.217 1.487.858 1.438.286 0 .487-.09.603-.27.22-.326.262-1.272-.054-1.638-.22-.352-1.014-.663-1.434-.872-.599-.287-1.03-.627-1.293-1.021-.595-.875-.54-2.795.295-3.573.81-.96 2.927-1.004 3.739-.02.5.508.719 1.506.677 2.424h-1.743c.015-.377-.02-.986-.167-1.208-.103-.188-.298-.282-.583-.282-.51 0-.764.304-.764.913.005.646.257.911.844 1.181.76.296 1.727.8 2.078 1.41 1.045 1.86.328 4.702-2.239 4.593v.001zm5.843 0c-1.85.025-2.678-1.291-2.627-3.076h1.81c-.05.778.217 1.487.857 1.438.286 0 .488-.09.604-.27.22-.326.262-1.272-.054-1.638-.22-.352-1.015-.663-1.434-.872-.599-.287-1.03-.627-1.293-1.021-.595-.875-.54-2.795.294-3.573.811-.96 2.928-1.004 3.74-.02.5.508.719 1.506.676 2.424H22.07c.015-.377-.02-.986-.168-1.208-.102-.188-.297-.282-.582-.282-.51 0-.764.304-.764.913.005.646.257.911.844 1.181.76.296 1.727.8 2.078 1.41 1.045 1.86.328 4.702-2.239 4.593v.001z" fill="#fff"/></svg>