<svg viewBox="0 0 28 28" fill="none" xmlns="http://www.w3.org/2000/svg"><g clip-path="url(#prefix__clip0_2268_70)"><mask id="prefix__a" style="mask-type:alpha" maskUnits="userSpaceOnUse" x="0" y="0" width="28" height="28"><path d="M14 28c7.732 0 14-6.268 14-14S21.732 0 14 0 0 6.268 0 14s6.268 14 14 14z" fill="#000"/></mask><g mask="url(#prefix__a)"><path d="M14 28c7.732 0 14-6.268 14-14S21.732 0 14 0 0 6.268 0 14s6.268 14 14 14z" fill="#000"/><path d="M23.257 24.503L10.755 8.4H8.4v11.195h1.884v-8.802l11.494 14.85a14.039 14.039 0 001.479-1.14z" fill="url(#next-linear-2)"/><path d="M19.756 8.4h-1.867v11.2h1.867V8.4z" fill="url(#next-linear)"/></g></g><defs><linearGradient id="next-linear-2" x1="16.956" y1="18.122" x2="22.478" y2="24.967" gradientUnits="userSpaceOnUse"><stop stop-color="#fff"/><stop offset="1" stop-color="#fff" stop-opacity="0"/></linearGradient><linearGradient id="next-linear" x1="18.822" y1="8.4" x2="18.791" y2="16.625" gradientUnits="userSpaceOnUse"><stop stop-color="#fff"/><stop offset="1" stop-color="#fff" stop-opacity="0"/></linearGradient><clipPath id="prefix__clip0_2268_70"><path fill="#fff" d="M0 0h28v28H0z"/></clipPath></defs></svg>