<svg viewBox="0 0 26 18" fill="none" xmlns="http://www.w3.org/2000/svg"><path d="M14.56 18h9.62c.307 0 .6-.112.867-.27.265-.158.54-.356.693-.63.153-.274.26-.584.26-.9 0-.316-.106-.626-.26-.9l-6.5-11.61a1.613 1.613 0 00-.607-.63 2.037 2.037 0 00-.953-.27c-.307 0-.6.112-.867.27a1.613 1.613 0 00-.606.63L14.56 6.66 11.267.9c-.154-.274-.341-.562-.607-.72C10.394.022 10.1 0 9.793 0c-.307 0-.6.022-.866.18s-.54.446-.694.72L.173 15.3c-.153.274-.173.584-.173.9 0 .316.02.626.173.9.154.274.428.472.694.63.266.158.56.27.866.27H7.8c2.404 0 4.154-1.12 5.373-3.24l2.947-5.31 1.56-2.79 4.767 8.46H16.12L14.56 18zm-6.847-2.88H3.467L9.793 3.78 13 9.45l-2.124 3.845c-.81 1.376-1.734 1.825-3.163 1.825z" fill="#00DC82"/></svg>