<svg viewBox="0 0 24 24" fill="none" xmlns="http://www.w3.org/2000/svg"><path fill-rule="evenodd" clip-rule="evenodd" d="M23.743 12.493l-1.774-1.774a.749.749 0 01-.22-.53V8.02c0-2.006-.208-2.734-.6-3.467a4.087 4.087 0 00-1.701-1.701c-.733-.392-1.46-.601-3.467-.601h-2.869a.15.15 0 01-.106-.256L14.78.22a.752.752 0 01.532-.22h.996c2.675 0 3.645.278 4.622.801A5.452 5.452 0 0123.2 3.07c.522.978.8 1.948.8 4.623v4.695a.15.15 0 01-.256.106zM11.506 23.744l1.774-1.774a.753.753 0 01.532-.22h2.17c2.005 0 2.733-.209 3.466-.601a4.086 4.086 0 001.7-1.701c.393-.733.602-1.46.602-3.467v-2.868a.15.15 0 01.256-.106l1.774 1.774c.14.14.22.33.22.53v.997c0 2.675-.279 3.645-.802 4.622A5.452 5.452 0 0120.93 23.2c-.977.522-1.947.801-4.622.801h-4.696a.15.15 0 01-.106-.256zM.257 11.507L2.03 13.28c.14.14.22.331.22.53v2.171c0 2.006.209 2.733.601 3.467a4.088 4.088 0 001.701 1.7c.733.393 1.46.602 3.467.602h2.868a.15.15 0 01.107.255L9.22 23.78a.753.753 0 01-.532.22h-.996c-2.675 0-3.645-.278-4.622-.8A5.452 5.452 0 01.8 20.93C.278 19.953 0 18.983 0 16.308v-4.695a.15.15 0 01.257-.106zM12.494.256L10.72 2.03a.753.753 0 01-.532.22h-2.17c-2.005 0-2.733.209-3.466.601a4.088 4.088 0 00-1.7 1.701c-.393.733-.602 1.46-.602 3.467v2.868a.15.15 0 01-.257.106L.22 9.22A.75.75 0 010 8.69v-.998C0 5.017.278 4.047.801 3.07A5.451 5.451 0 013.07.802C4.047.279 5.017 0 7.692 0h4.695a.15.15 0 01.107.256z" fill="currentColor"/><path fill-rule="evenodd" clip-rule="evenodd" d="M19.996 8.757l-2.419-2.312a1.495 1.495 0 00-.547-.349A1.495 1.495 0 0016.5 6H9.36a.15.15 0 01-.106-.256L11.03 3.97c.14-.141.332-.22.532-.22h5.688a3 3 0 013 3v1.898a.15.15 0 01-.254.109zM15.242 19.998l2.313-2.42c.16-.16.276-.347.348-.546.063-.165.097-.344.097-.53v-7.14a.15.15 0 01.257-.105l1.774 1.775c.14.14.219.331.219.53v5.69a3 3 0 01-3 3h-1.899a.15.15 0 01-.109-.254zM4.005 15.243l2.418 2.312c.16.16.347.276.547.349A1.5 1.5 0 007.5 18h7.14a.15.15 0 01.106.256L12.97 20.03a.753.753 0 01-.531.22H6.75a3 3 0 01-3-3v-1.899a.15.15 0 01.255-.108zM8.758 4.003l-2.312 2.42c-.16.16-.277.347-.35.546A1.5 1.5 0 006 7.5v7.14a.15.15 0 01-.257.105L3.97 12.97a.75.75 0 01-.219-.53V6.75a3 3 0 013-3h1.9a.15.15 0 01.108.254z" fill="currentColor"/></svg>