<svg viewBox="0 0 22 24" fill="none" xmlns="http://www.w3.org/2000/svg"><path fill-rule="evenodd" clip-rule="evenodd" d="M0 1.95C0 .874.895 0 2 0h18c1.105 0 2 .873 2 1.95v17.56c0 1.077-.895 1.95-2 1.95H8.337l-2.988 2.406c-.387.313-.973.043-.973-.447V21.46H2c-1.105 0-2-.873-2-1.95V1.95zm4.375 1.596h9.615c2.076 0 3.76 1.642 3.76 3.667 0 1.624-1.081 3-2.58 3.484 1.752.312 3.08 1.808 3.08 3.607 0 2.026-1.683 3.668-3.76 3.668H4.375V3.546zm7.996 3.3H7.874v2.2h4.497c.623 0 1.128-.492 1.128-1.1 0-.607-.505-1.1-1.128-1.1zm-4.497 4.89h4.872c.692 0 1.253.548 1.253 1.223s-.56 1.223-1.253 1.223H7.874v-2.446z" fill="currentColor"/></svg>