<svg viewBox="0 0 26 26" fill="none" xmlns="http://www.w3.org/2000/svg"><path d="M23.46 0H2.54A2.54 2.54 0 000 2.54v20.92A2.54 2.54 0 002.54 26h20.92A2.54 2.54 0 0026 23.46V2.54A2.54 2.54 0 0023.46 0z" fill="#3178C6"/><path fill-rule="evenodd" clip-rule="evenodd" d="M16.095 20.69v2.542c.413.212.902.37 1.466.476a9.66 9.66 0 001.784.16 8.34 8.34 0 001.737-.176 4.256 4.256 0 001.442-.576c.413-.267.74-.617.982-1.048.24-.432.361-.965.361-1.6 0-.462-.069-.866-.206-1.212a2.833 2.833 0 00-.597-.926c-.26-.27-.57-.512-.933-.727a10.008 10.008 0 00-1.228-.608 15.54 15.54 0 01-.898-.4 4.561 4.561 0 01-.676-.398 1.733 1.733 0 01-.429-.429.903.903 0 01-.151-.512c0-.175.045-.333.135-.473.09-.14.217-.26.382-.361.164-.101.365-.18.604-.235.238-.055.503-.083.794-.083a5.309 5.309 0 011.383.195c.239.066.47.149.696.25.225.1.433.217.623.35v-2.376a6.206 6.206 0 00-1.267-.33 10.329 10.329 0 00-1.578-.107 7.33 7.33 0 00-1.716.195c-.54.13-1.016.332-1.427.607-.41.276-.735.627-.974 1.053-.238.426-.357.936-.357 1.53 0 .756.218 1.403.656 1.938.437.535 1.1.987 1.99 1.358.35.143.676.283.978.421.302.138.563.28.783.43.22.147.393.309.52.484a.987.987 0 01.072 1.052c-.08.14-.2.262-.362.366a1.98 1.98 0 01-.604.242 3.63 3.63 0 01-.846.087 4.887 4.887 0 01-3.14-1.16zm-4.274-6.264h3.261V12.34h-9.09v2.086h3.245v9.289h2.584v-9.289z" fill="#fff"/></svg>