<svg viewBox="0 0 26 26" fill="none" xmlns="http://www.w3.org/2000/svg"><path d="M25.914 3.848L13.7 25.661a.664.664 0 01-1.155.004L.088 3.85a.663.663 0 01.693-.98L13.01 5.051a.665.665 0 00.236 0l11.97-2.18c.553-.1.973.487.699.976z" fill="url(#vite-gradient-blue)"/><path d="M18.833.006l-9.038 1.77a.332.332 0 00-.268.305l-.556 9.378c-.013.221.19.393.406.343l2.516-.58a.332.332 0 01.4.39l-.747 3.656a.332.332 0 00.421.383l1.555-.471a.332.332 0 01.421.384l-1.188 5.743c-.074.36.404.555.604.247l.133-.205 7.365-14.68a.332.332 0 00-.36-.474l-2.59.5a.332.332 0 01-.382-.418l1.69-5.853a.332.332 0 00-.382-.418z" fill="url(#vite-gradient-yellow)"/><defs><linearGradient id="vite-gradient-blue" x1="-.215" y1="2.09" x2="14.961" y2="22.726" gradientUnits="userSpaceOnUse"><stop stop-color="#41D1FF"/><stop offset="1" stop-color="#BD34FE"/></linearGradient><linearGradient id="vite-gradient-yellow" x1="12.307" y1=".487" x2="15.05" y2="19.327" gradientUnits="userSpaceOnUse"><stop stop-color="#FFEA83"/><stop offset=".083" stop-color="#FFDD35"/><stop offset="1" stop-color="#FFA800"/></linearGradient></defs></svg>