<svg viewBox="0 0 189 93" fill="none" xmlns="http://www.w3.org/2000/svg"><path d="M42.583 5.862L38.742 27.66c-2.339-3.006-7.266-4.928-12.193-4.928C12.686 22.732 4 34.09 4 47.619c0 11.609 7.35 19.794 16.87 19.794 5.345 0 9.938-2.422 12.025-5.513l-.918 4.844h12.36L54.86 5.862H42.583zM24.962 56.973c-5.01 0-8.518-4.176-8.518-9.855 0-7.933 4.593-13.947 11.274-13.947 5.178 0 8.769 3.675 8.769 9.438 0 6.847-4.092 14.364-11.525 14.364zM76.241 23.4H58.035l-1.921 10.106h6.097l-4.176 23.133H51.27l-1.837 10.106h25.973l1.837-10.106h-6.932l5.93-33.238zM126.959 33.506h13.864L142.66 23.4h-13.864l2.172-12.61h-12.277L116.52 23.4H98.314l2.171-12.61H88.208l-6.68 38.165c-2.256 12.527 4.676 18.457 15.616 18.457 3.09 0 5.429-.418 7.433-1.002l1.837-10.523c-1.837.584-3.674.919-6.681.919-4.76 0-6.932-2.172-6.097-7.182l2.84-16.12h18.29l-2.756 15.451c-2.255 12.527 4.677 18.457 15.617 18.457 3.09 0 5.428-.418 7.433-1.002l1.837-10.523c-1.838.584-3.675.919-6.681.919-4.76 0-6.932-2.172-6.097-7.182l2.84-16.12zM182.497 56.89c-1.838 0-2.255-1.504-2.005-3.008l2.172-12.36c2.004-11.608-5.428-18.79-17.955-18.79-9.605 0-19.209 6.013-20.378 15.45h11.775c.752-3.925 3.925-6.18 8.435-6.18 4.176 0 6.598 2.004 6.598 4.343 0 2.17-1.42 3.508-3.591 3.758l-9.02.919c-9.187.918-16.87 5.261-16.87 14.114 0 7.85 6.181 12.276 15.033 12.276 5.762 0 11.107-2.255 12.861-5.429.25 3.007 3.591 5.346 7.934 5.346 2.087 0 3.591-.251 4.76-.585L184 56.722a6.22 6.22 0 01-1.503.167zm-13.195-7.768c-1.086 5.429-5.011 9.27-10.857 9.27-3.09 0-4.844-1.503-4.844-3.841 0-3.007 2.589-5.095 6.263-5.596l9.688-1.336-.25 1.503zM76.176 11.885a6.208 6.208 0 10-12.397-.686 6.208 6.208 0 0012.397.686z" fill="currentColor"/><path fill="#fff" stroke="#0B99FF" d="M.5.5h8v8h-8zM.5 63.5h8v8h-8zM180.5 63.5h8v8h-8zM180.5.5h8v8h-8z"/><path fill="#0B99FF" d="M9 4h171v1H9zM9 67h171v1H9zM4 9h1v54H4zM184 9h1v54h-1z"/><rect x="62" y="75" width="66" height="18" rx="3" fill="#0B99FF"/><path d="M69.881 88v-5.632h-1.705v-.957c1.331-.011 1.87-.33 2.002-1.342h.979V88h-1.276zm5.284.088c-1.672 0-2.904-.869-2.904-2.387 0-.858.561-1.595 1.397-1.881-.682-.308-1.155-1.001-1.155-1.694 0-1.243 1.067-2.145 2.662-2.145 1.584 0 2.662.902 2.662 2.145 0 .693-.484 1.386-1.166 1.694.825.275 1.408 1.012 1.408 1.881 0 1.518-1.243 2.387-2.904 2.387zm0-1.067c.968 0 1.617-.495 1.617-1.287 0-.792-.649-1.309-1.617-1.309-.979 0-1.628.517-1.628 1.309 0 .792.65 1.287 1.628 1.287zm0-3.674c.825 0 1.397-.473 1.397-1.144 0-.693-.56-1.155-1.397-1.155-.847 0-1.408.462-1.408 1.155 0 .671.572 1.144 1.408 1.144zm6.781 4.741c-1.99 0-3.112-1.628-3.112-4.059 0-2.42 1.121-4.048 3.112-4.048 2.002 0 3.124 1.617 3.124 4.048 0 2.442-1.121 4.059-3.123 4.059zm0-1.133c1.2 0 1.826-1.133 1.826-2.926 0-1.782-.627-2.926-1.826-2.926-1.177 0-1.803 1.133-1.803 2.926 0 1.804.626 2.926 1.803 2.926zm10.5-.055l-1.827-1.826-1.837 1.826-.814-.814 1.837-1.826-1.837-1.826.814-.803 1.837 1.815 1.826-1.815.825.803-1.837 1.826 1.837 1.826-.825.814zm6.718 1.188c-1.958 0-3.003-1.584-3.003-3.641 0-2.794 1.31-4.466 3.19-4.466 1.309 0 2.574.649 2.728 2.255h-1.298c-.033-.605-.55-1.144-1.43-1.144-1.243 0-1.925 1.21-1.969 2.783.341-.649 1.078-1.122 2.013-1.122 1.529 0 2.695 1.122 2.695 2.662 0 1.595-1.221 2.673-2.926 2.673zm.022-1.111c.924 0 1.595-.671 1.595-1.606 0-.924-.671-1.595-1.595-1.595-.924 0-1.606.671-1.606 1.595 0 .935.682 1.606 1.606 1.606zM102.828 88v-1.078l2.904-2.475c.869-.748 1.276-1.353 1.276-2.024 0-.803-.55-1.32-1.375-1.32-1.001 0-1.562.737-1.463 1.848h-1.232c-.143-1.76 1.023-2.97 2.695-2.97 1.617 0 2.684.979 2.684 2.442 0 .979-.561 1.87-1.826 2.893l-1.848 1.551h3.663V88h-5.478zm6.382-1.353h1.386V88h-1.386v-1.353zM115.152 88v-1.793h-4.081v-1.133l3.938-5.005h1.419v5.005h1.067v1.133h-1.067V88h-1.276zm-2.717-2.926h2.717v-3.498l-2.717 3.498zM119.302 88v-5.632h-1.705v-.957c1.331-.011 1.87-.33 2.002-1.342h.979V88h-1.276z" fill="#fff"/></svg>