<svg viewBox="0 0 44 15" fill="none" xmlns="http://www.w3.org/2000/svg"><path d="M9.273.207L8.35 5.446c-.562-.723-1.746-1.184-2.93-1.184-3.333 0-5.42 2.73-5.42 5.98C0 13.033 1.766 15 4.054 15c1.285 0 2.389-.582 2.89-1.325l-.22 1.164h2.97L12.224.207H9.272zM5.038 12.491c-1.204 0-2.047-1.004-2.047-2.368 0-1.907 1.104-3.352 2.71-3.352 1.244 0 2.107.883 2.107 2.268 0 1.645-.984 3.452-2.77 3.452zM17.362 4.422h-4.376l-.461 2.429h1.465l-1.004 5.56h-1.625l-.442 2.428h6.242l.442-2.428h-1.666l1.425-7.989zM29.551 6.85h3.332l.442-2.428h-3.332l.522-3.03h-2.95l-.522 3.03h-4.376l.522-3.03h-2.95l-1.607 9.172C18.09 13.574 19.756 15 22.387 15c.742 0 1.305-.1 1.786-.24l.442-2.53c-.442.14-.883.221-1.606.221-1.144 0-1.666-.522-1.465-1.726l.682-3.874h4.396l-.662 3.713C25.417 13.574 27.083 15 29.712 15c.742 0 1.305-.1 1.786-.24l.442-2.53c-.442.14-.883.221-1.606.221-1.144 0-1.666-.522-1.465-1.726l.682-3.874zM42.9 12.47c-.443 0-.543-.36-.483-.722l.522-2.97c.482-2.79-1.304-4.517-4.315-4.517-2.308 0-4.617 1.446-4.898 3.714h2.83c.181-.944.944-1.485 2.028-1.485 1.003 0 1.585.481 1.585 1.043 0 .522-.34.843-.863.903l-2.167.221c-2.208.221-4.055 1.265-4.055 3.392 0 1.887 1.485 2.95 3.613 2.95 1.385 0 2.67-.541 3.091-1.304.06.723.863 1.285 1.907 1.285a4.1 4.1 0 001.144-.14l.421-2.41c-.08.02-.2.04-.36.04zm-3.172-1.866c-.261 1.305-1.205 2.228-2.61 2.228-.742 0-1.164-.361-1.164-.923 0-.723.623-1.225 1.506-1.345l2.328-.321-.06.361zM17.346 1.655a1.492 1.492 0 10-2.98-.165 1.492 1.492 0 002.98.165z" fill="currentColor"/></svg>