<svg viewBox="0 0 17 25" fill="none" xmlns="http://www.w3.org/2000/svg"><path d="M0 20.833c0-2.3 1.903-4.166 4.25-4.166H8.5v4.166C8.5 23.135 6.597 25 4.25 25S0 23.135 0 20.833z" fill="#24CB71"/><path d="M8.5 0v8.333h4.25c2.347 0 4.25-1.865 4.25-4.166S15.097 0 12.75 0H8.5z" fill="#FF7237"/><path d="M12.715 16.667c2.347 0 4.25-1.866 4.25-4.167 0-2.301-1.903-4.167-4.25-4.167-2.348 0-4.25 1.866-4.25 4.167 0 2.301 1.902 4.167 4.25 4.167z" fill="#00B6FF"/><path d="M0 4.167c0 2.3 1.903 4.166 4.25 4.166H8.5V0H4.25C1.903 0 0 1.865 0 4.167z" fill="#FF3737"/><path d="M0 12.5c0 2.301 1.903 4.167 4.25 4.167H8.5V8.333H4.25C1.903 8.333 0 10.2 0 12.5z" fill="#874FFF"/></svg>