<svg viewBox="0 0 28 28" fill="none" xmlns="http://www.w3.org/2000/svg"><path d="M27.472 12.753L15.247.53a1.802 1.802 0 00-2.551 0l-2.538 2.539 3.22 3.22a2.142 2.142 0 012.711 2.73l3.105 3.103a2.141 2.141 0 012.846 2.027 2.146 2.146 0 11-4.13-.817l-2.896-2.894v7.617a2.144 2.144 0 01-.95 4.069 2.146 2.146 0 01-.815-4.132v-7.687a2.148 2.148 0 01-1.164-2.814L8.91 4.315.527 12.696a1.806 1.806 0 000 2.55l12.226 12.227a1.806 1.806 0 002.55 0l12.17-12.169a1.806 1.806 0 000-2.55z" fill="#F03C2E"/></svg>