<svg viewBox="0 0 28 28" fill="none" xmlns="http://www.w3.org/2000/svg"><path d="M20.293 9.717l-.01-.005a.043.043 0 01-.018-.01.08.08 0 01-.02-.067l.565-3.451 2.65 2.648-2.756 1.171a.06.06 0 01-.024.004h-.011a.076.076 0 01-.015-.012 1.254 1.254 0 00-.361-.278zm3.843-.21l2.834 2.83c.588.588.883.882.99 1.222.017.05.03.101.04.153l-6.772-2.865-.01-.004c-.028-.011-.06-.024-.06-.051 0-.028.033-.041.06-.052l.009-.004 2.91-1.23zm3.748 5.113c-.146.275-.43.56-.913 1.042l-3.195 3.19-4.132-.859-.022-.004c-.036-.006-.075-.012-.075-.045a1.244 1.244 0 00-.479-.871c-.017-.017-.012-.044-.007-.068l.001-.01.777-4.766.003-.016c.005-.036.011-.078.044-.078a1.265 1.265 0 00.848-.486c.007-.007.011-.015.02-.02.023-.01.051 0 .075.01l7.055 2.981zm-4.843 4.967l-5.253 5.247.9-5.52v-.008l.005-.02c.007-.018.026-.026.045-.033l.008-.004c.197-.083.371-.213.508-.377.018-.02.04-.04.066-.044a.069.069 0 01.021 0l3.7.76v-.001zm-6.365 6.358l-.592.591-6.547-9.45a.324.324 0 00-.007-.01c-.01-.014-.021-.028-.019-.044 0-.012.008-.022.016-.031l.007-.01c.02-.029.037-.058.055-.09l.015-.025.002-.002c.01-.018.02-.034.037-.044.016-.007.037-.004.054 0l7.252 1.493c.02.004.04.012.056.024.01.01.012.02.014.032a1.282 1.282 0 00.751.858c.02.01.012.033.003.057a.182.182 0 00-.011.033l-1.086 6.618zm-1.237 1.235c-.436.431-.694.66-.985.752-.287.09-.594.09-.881 0-.341-.108-.636-.402-1.224-.99l-6.574-6.567 1.717-2.66a.11.11 0 01.03-.035c.017-.013.044-.007.066 0 .394.119.817.097 1.197-.06.02-.008.04-.013.055 0a.14.14 0 01.02.024l6.58 9.536zM5.141 19.742l-1.508-1.507 2.978-1.27a.06.06 0 01.024-.004c.025 0 .04.025.053.047.03.046.061.091.095.135l.01.011c.008.013.002.025-.007.037l-1.645 2.55zm-2.176-2.174l-1.908-1.906c-.324-.324-.56-.559-.724-.761l5.802 1.202a.543.543 0 00.022.003c.036.006.075.013.075.046 0 .037-.043.054-.08.068l-.016.007-3.17 1.341zM0 13.921c.007-.123.029-.244.066-.362.108-.34.402-.634.991-1.222L3.5 9.897a1581.24 1581.24 0 003.382 4.884c.02.026.041.055.019.077a2.028 2.028 0 00-.29.386.117.117 0 01-.036.045c-.01.006-.02.004-.03.002h-.002L0 13.92zm4.152-4.676l3.284-3.28c.308.136 1.43.61 2.435 1.033.76.321 1.454.613 1.672.708.022.01.041.018.05.04.007.013.004.03 0 .044a1.462 1.462 0 00.383 1.334c.022.022 0 .054-.019.08l-.01.016-3.334 5.158a.101.101 0 01-.031.036c-.018.011-.043.006-.063.001a1.668 1.668 0 00-.397-.054c-.12 0-.25.022-.382.046-.014.002-.028.005-.04-.004a.155.155 0 01-.033-.037L4.152 9.245zM8.1 5.303l4.25-4.246c.588-.587.883-.882 1.224-.989.287-.09.595-.09.881 0 .341.107.636.402 1.224.99l.921.92-3.023 4.676a.113.113 0 01-.03.035c-.018.013-.043.007-.065 0a1.535 1.535 0 00-1.404.27c-.02.02-.049.01-.074-.002-.395-.171-3.465-1.468-3.904-1.654zM17.24 2.62l2.791 2.788-.672 4.16v.012c0 .01-.003.019-.006.027-.008.015-.022.018-.037.022a1.338 1.338 0 00-.415.212c-.008.009-.016.017-.03.018a.083.083 0 01-.03-.005l-4.254-1.805-.008-.004c-.027-.01-.06-.024-.06-.051a1.603 1.603 0 00-.226-.669c-.02-.033-.043-.068-.025-.103L17.24 2.62zm-2.874 6.284l3.987 1.687c.022.01.046.02.055.043a.077.077 0 010 .041.989.989 0 00-.022.192v.112c0 .028-.028.04-.054.05l-.008.003c-.632.27-8.868 3.778-8.88 3.778-.013 0-.026 0-.039-.013-.021-.022 0-.052.02-.08a.562.562 0 00.01-.015l3.277-5.068.006-.008c.019-.031.04-.065.076-.065l.033.005c.074.01.14.02.207.02a1.48 1.48 0 001.235-.655.116.116 0 01.025-.03c.02-.014.049-.007.072.003zM9.8 15.611l8.978-3.825s.013 0 .025.013c.05.049.091.082.131.112l.02.013c.018.01.037.021.038.04 0 .008 0 .012-.002.019l-.768 4.719-.004.018c-.005.037-.01.079-.044.079a1.266 1.266 0 00-1.004.618l-.003.006c-.01.017-.02.033-.037.042-.015.007-.035.004-.051 0l-7.16-1.475c-.007-.001-.11-.379-.119-.38z" fill="url(#netlify-gradient)"/><defs><radialGradient id="netlify-gradient" cx="0" cy="0" r="1" gradientUnits="userSpaceOnUse" gradientTransform="matrix(0 2796.92 -3232.7 0 -.94 13.605)"><stop stop-color="#20C6B7"/><stop offset="1" stop-color="#4D9ABF"/></radialGradient></defs></svg>