<svg viewBox="0 0 28 28" xmlns="http://www.w3.org/2000/svg"><path d="M27.379 13.314a6.948 6.948 0 01.462 4.35 6.951 6.951 0 01-.808 2.067 6.982 6.982 0 01-.879 1.202c-.334.367-.707.7-1.112.992a7.152 7.152 0 01-2.734 1.188 6.977 6.977 0 01-1.018 1.975 7.027 7.027 0 01-1.585 1.564A7.236 7.236 0 0115.486 28c-.5.003-1.003-.05-1.494-.149a7.137 7.137 0 01-2.725-1.202 6.997 6.997 0 01-1.106-.998 7.258 7.258 0 01-4.417-.455 7.113 7.113 0 01-3.293-2.933 6.906 6.906 0 01-.926-4.278c.053-.49.163-.974.32-1.444a7.006 7.006 0 01-1.686-6.206A6.95 6.95 0 01.965 8.27a7.014 7.014 0 013.292-2.932c.462-.201.941-.35 1.432-.45a7.005 7.005 0 011.015-1.975A7.177 7.177 0 0112.513 0a7.148 7.148 0 014.221 1.348 7.03 7.03 0 011.11.998 7.26 7.26 0 014.411.455 7.188 7.188 0 011.881 1.208 7.036 7.036 0 011.412 1.722 6.98 6.98 0 01.929 2.798 6.916 6.916 0 01-.323 2.93 7.019 7.019 0 011.225 1.855zM17.52 25.771a5.31 5.31 0 001.725-1.138 5.209 5.209 0 001.56-3.712v-6.507a.27.27 0 01-.007-.02.072.072 0 00-.009-.018.053.053 0 00-.014-.014.048.048 0 00-.018-.012l-2.388-1.36v7.861a.912.912 0 01-.124.458.947.947 0 01-.34.336l-5.654 3.218c-.047.03-.127.07-.168.094.233.195.488.367.754.519.27.152.547.28.837.385a5.418 5.418 0 001.81.312c.7 0 1.391-.137 2.036-.402zM4.057 21.353a5.313 5.313 0 003.23 2.442 5.39 5.39 0 004.036-.522l5.716-3.253.015-.015a.037.037 0 00.009-.018.07.07 0 00.009-.017v-2.743l-6.9 3.936c-.07.041-.145.07-.221.094a.97.97 0 01-.708-.094L3.59 17.942a5.75 5.75 0 01-.166-.1 5.2 5.2 0 00-.08.908 5.203 5.203 0 00.713 2.609v-.006zM2.572 9.186a5.228 5.228 0 00-.666 1.94 5.212 5.212 0 001.053 3.878 5.325 5.325 0 001.56 1.348l5.713 3.256a.28.28 0 00.02.006h.021a.037.037 0 00.02-.006.071.071 0 00.019-.009l2.396-1.365-6.9-3.928a.938.938 0 01-.34-.336.974.974 0 01-.091-.22.786.786 0 01-.03-.237V6.886c-.29.105-.57.234-.837.385a5.397 5.397 0 00-1.405 1.17c-.199.231-.373.482-.527.745h-.006zm19.624 4.505a.94.94 0 01.343.335c.038.07.07.146.092.222.017.079.03.158.026.24v6.626a5.297 5.297 0 002.39-1.742 5.19 5.19 0 00.489-5.608 5.255 5.255 0 00-2.056-2.116l-5.713-3.256a.302.302 0 00-.02-.006h-.022a.283.283 0 01-.02.006.075.075 0 00-.018.009l-2.385 1.36 6.9 3.93h-.006zm2.381-3.53h-.003v.002l.003-.003zm-.003-.004c.172-.98.056-1.99-.334-2.909a5.263 5.263 0 00-1.864-2.282 5.385 5.385 0 00-2.813-.94 5.414 5.414 0 00-2.888.698l-5.713 3.254a.05.05 0 00-.014.014l-.012.018a.34.34 0 00-.01.04v2.72l6.9-3.93c.071-.041.148-.07.225-.094a.96.96 0 01.24-.029c.082 0 .162.009.242.03.077.023.151.052.222.093l5.654 3.22c.05.03.124.07.165.097zM9.625 7.146a.929.929 0 01.272-.648.84.84 0 01.193-.143l5.653-3.218c.053-.032.127-.073.169-.094a5.327 5.327 0 00-2.725-1.173 5.367 5.367 0 00-2.935.453A5.297 5.297 0 008.02 4.26a5.206 5.206 0 00-.829 2.816v6.507a.299.299 0 00.006.02.075.075 0 00.01.018.116.116 0 00.014.017c.004.004.01.008.018.012l2.387 1.36V7.146zm1.296 8.599l3.074 1.75 3.074-1.75v-3.499l-3.071-1.75-3.074 1.75-.003 3.499z" fill="currentColor"/></svg>