<svg viewBox="0 0 25 28" fill="none" xmlns="http://www.w3.org/2000/svg"><path d="M21.875 5.446c-.017-.148-.15-.213-.25-.213s-2.277-.164-2.277-.164-1.512-1.493-1.695-1.64c-.166-.165-.482-.116-.615-.083-.017 0-.333.099-.848.263C15.675 2.149 14.794.82 13.215.82h-.15C12.633.262 12.068 0 11.602 0 7.945 0 6.183 4.51 5.635 6.807c-1.43.443-2.444.738-2.56.788-.798.246-.814.262-.914 1C2.078 9.153 0 25.015 0 25.015L16.173 28l8.777-1.87c.017-.033-3.059-20.537-3.075-20.684zm-6.583-1.608c-.399.115-.88.263-1.363.427V3.97c0-.886-.116-1.608-.332-2.182.831.098 1.346 1 1.695 2.05zm-2.709-1.87c.216.558.366 1.345.366 2.428v.164c-.898.279-1.845.558-2.826.87.548-2.067 1.596-3.084 2.46-3.462zM11.519.951c.166 0 .333.066.466.164-1.18.542-2.427 1.903-2.943 4.659-.78.246-1.529.46-2.244.689C7.397 4.363 8.893.95 11.52.95z" fill="#95BF47"/><path d="M21.626 5.2c-.1 0-2.277-.164-2.277-.164s-1.513-1.493-1.696-1.64a.324.324 0 00-.216-.1L16.224 28 25 26.13S21.925 5.593 21.908 5.446a.448.448 0 00-.282-.246z" fill="#5E8E3E"/><path d="M13.214 9.99l-1.063 3.165s-.964-.508-2.111-.508c-1.712 0-1.796 1.066-1.796 1.328 0 1.444 3.824 2.001 3.824 5.397 0 2.674-1.713 4.396-4.023 4.396-2.793 0-4.189-1.706-4.189-1.706l.748-2.428s1.463 1.247 2.693 1.247c.814 0 1.147-.623 1.147-1.083 0-1.886-3.125-1.968-3.125-5.085 0-2.608 1.895-5.134 5.735-5.134 1.43-.016 2.16.41 2.16.41z" fill="#fff"/></svg>