<svg viewBox="0 0 28 17" fill="none" xmlns="http://www.w3.org/2000/svg"><path fill-rule="evenodd" clip-rule="evenodd" d="M14 0c-3.733 0-6.067 1.889-7 5.667 1.4-1.89 3.033-2.598 4.9-2.125 1.065.269 1.826 1.051 2.669 1.916C15.94 6.868 17.53 8.5 21 8.5c3.733 0 6.067-1.889 7-5.667-1.4 1.89-3.033 2.598-4.9 2.125-1.065-.269-1.826-1.051-2.669-1.916C19.06 1.632 17.47 0 14 0zM7 8.5c-3.733 0-6.067 1.889-7 5.667 1.4-1.89 3.033-2.598 4.9-2.125 1.065.27 1.826 1.051 2.669 1.916C8.94 15.368 10.53 17 14 17c3.733 0 6.067-1.889 7-5.667-1.4 1.89-3.033 2.598-4.9 2.125-1.065-.269-1.826-1.051-2.669-1.916C12.06 10.132 10.47 8.5 7 8.5z" fill="#38BDF8"/></svg>